<svg width="85" height="85" viewBox="0 0 85 85" fill="none" xmlns="http://www.w3.org/2000/svg">
<path d="M14.1668 21.2502H7.0835V70.8335C7.0835 72.7121 7.82977 74.5138 9.15816 75.8422C10.4865 77.1706 12.2882 77.9168 14.1668 77.9168H63.7502V70.8335H14.1668V21.2502ZM65.521 50.4689C65.521 45.1564 54.896 42.5002 49.5835 42.5002C44.271 42.5002 33.646 45.1564 33.646 50.4689V53.1252H65.521V50.4689ZM49.5835 36.3022C53.9752 36.3022 57.5522 32.7252 57.5522 28.3335C57.5522 23.9418 53.9752 20.3647 49.5835 20.3647C45.1918 20.3647 41.6147 23.9418 41.6147 28.3335C41.6147 32.7252 45.1918 36.3022 49.5835 36.3022ZM70.8335 7.0835H28.3335C24.4377 7.0835 21.2502 10.271 21.2502 14.1668V56.6668C21.2502 58.5454 21.9964 60.3471 23.3248 61.6755C24.6532 63.0039 26.4549 63.7502 28.3335 63.7502H70.8335C74.7647 63.7502 77.9168 60.5981 77.9168 56.6668V14.1668C77.9168 12.2882 77.1706 10.4865 75.8422 9.15816C74.5138 7.82977 72.7121 7.0835 70.8335 7.0835ZM70.8335 56.6668H28.3335V14.1668H70.8335V56.6668Z" fill="white"/>
</svg>
