<svg width="61" height="61" viewBox="0 0 61 61" fill="none" xmlns="http://www.w3.org/2000/svg">
<path d="M7.625 45.75H26.6875V49.5625H7.625V45.75Z" fill="black"/>
<path d="M7.625 34.3125H26.6875V38.125H7.625V34.3125Z" fill="black"/>
<path d="M49.5625 26.6875H11.4375C10.4264 26.6875 9.45664 26.2858 8.74166 25.5708C8.02667 24.8559 7.625 23.8861 7.625 22.875V11.4375C7.625 10.4264 8.02667 9.45664 8.74166 8.74166C9.45664 8.02667 10.4264 7.625 11.4375 7.625H49.5625C50.5736 7.625 51.5434 8.02667 52.2583 8.74166C52.9733 9.45664 53.375 10.4264 53.375 11.4375V22.875C53.375 23.8861 52.9733 24.8559 52.2583 25.5708C51.5434 26.2858 50.5736 26.6875 49.5625 26.6875ZM11.4375 11.4375V22.875H49.5625V11.4375H11.4375Z" fill="black"/>
<path d="M49.5625 53.375H38.125C37.1139 53.375 36.1441 52.9733 35.4292 52.2583C34.7142 51.5434 34.3125 50.5736 34.3125 49.5625V38.125C34.3125 37.1139 34.7142 36.1441 35.4292 35.4292C36.1441 34.7142 37.1139 34.3125 38.125 34.3125H49.5625C50.5736 34.3125 51.5434 34.7142 52.2583 35.4292C52.9733 36.1441 53.375 37.1139 53.375 38.125V49.5625C53.375 50.5736 52.9733 51.5434 52.2583 52.2583C51.5434 52.9733 50.5736 53.375 49.5625 53.375ZM38.125 38.125V49.5625H49.5625V38.125H38.125Z" fill="black"/>
</svg>
