<svg width="26" height="14" viewBox="0 0 26 14" fill="none" xmlns="http://www.w3.org/2000/svg">
<path d="M14.6979 0.579759C14.9986 0.293451 15.3988 0.135168 15.814 0.13831C16.2292 0.141451 16.627 0.305772 16.9234 0.596598C17.2197 0.887424 17.3915 1.28201 17.4025 1.69709C17.4135 2.11217 17.2628 2.51528 16.9822 2.82136L8.4641 13.4743C8.31763 13.6321 8.14085 13.7587 7.94433 13.8466C7.74781 13.9344 7.53558 13.9818 7.32035 13.9858C7.10511 13.9898 6.89128 13.9503 6.69164 13.8698C6.492 13.7892 6.31066 13.6692 6.15845 13.517L0.509608 7.86817C0.352297 7.72159 0.226123 7.54482 0.138611 7.34841C0.0510985 7.15201 0.00404237 6.93999 0.000249183 6.725C-0.003544 6.51002 0.0360035 6.29647 0.116533 6.0971C0.197062 5.89773 0.316922 5.71662 0.468965 5.56458C0.621007 5.41253 0.802115 5.29267 1.00149 5.21214C1.20086 5.13161 1.4144 5.09207 1.62939 5.09586C1.84438 5.09965 2.0564 5.14671 2.2528 5.23422C2.44921 5.32173 2.62598 5.44791 2.77256 5.60522L7.24296 10.0735L14.6552 0.626727C14.6685 0.610244 14.6827 0.594561 14.6979 0.579759ZM12.7338 11.5529L14.6979 13.517C14.8501 13.6689 15.0313 13.7886 15.2307 13.869C15.4302 13.9493 15.6437 13.9887 15.8587 13.9847C16.0737 13.9807 16.2857 13.9334 16.482 13.8458C16.6783 13.7581 16.855 13.6317 17.0014 13.4743L25.5238 2.82136C25.6769 2.67022 25.7979 2.48977 25.8797 2.2908C25.9615 2.09182 26.0024 1.87841 25.9999 1.66329C25.9974 1.44817 25.9515 1.23576 25.8651 1.03875C25.7787 0.841739 25.6535 0.664164 25.4969 0.51663C25.3403 0.369096 25.1556 0.254628 24.9538 0.180062C24.752 0.105497 24.5373 0.0723621 24.3224 0.0826383C24.1075 0.0929145 23.8969 0.146391 23.7031 0.239873C23.5093 0.333354 23.3364 0.464924 23.1946 0.626727L15.7803 10.0735L14.7449 9.03594L12.7317 11.5529H12.7338Z" fill="#5DA625"/>
</svg>
