<svg width="67" height="67" viewBox="0 0 67 67" fill="none" xmlns="http://www.w3.org/2000/svg">
<path d="M16.75 29.3125H39.7812V33.5H16.75V29.3125ZM16.75 39.7812H43.9688V43.9688H16.75V39.7812Z" fill="#222047"/>
<path d="M58.625 8.375H8.375C7.26441 8.375 6.1993 8.81618 5.41399 9.60149C4.62868 10.3868 4.1875 11.4519 4.1875 12.5625V54.4375C4.1875 55.5481 4.62868 56.6132 5.41399 57.3985C6.1993 58.1838 7.26441 58.625 8.375 58.625H58.625C59.7356 58.625 60.8007 58.1838 61.586 57.3985C62.3713 56.6132 62.8125 55.5481 62.8125 54.4375V12.5625C62.8125 11.4519 62.3713 10.3868 61.586 9.60149C60.8007 8.81618 59.7356 8.375 58.625 8.375ZM58.625 12.5625V16.75H8.375V12.5625H58.625ZM8.375 54.4375V20.9375H58.625V54.4375H8.375Z" fill="#222047"/>
</svg>
