<svg width="50" height="50" viewBox="0 0 50 50" fill="none" xmlns="http://www.w3.org/2000/svg">
<path d="M25 46.875C28.3542 46.875 34.0907 42.5 34.0907 25C34.0907 7.5 28.3553 3.125 25 3.125C21.6459 3.125 15.9094 7.79479 15.9094 25C15.9094 42.2052 21.6459 46.875 25 46.875Z" stroke="white" stroke-width="4" stroke-linecap="round" stroke-linejoin="round"/>
<path d="M5.31782 36.4583C6.9949 39.3875 13.8001 42.1052 29.5459 32.9385C45.2918 23.7719 46.3595 16.4708 44.6824 13.5417C43.0053 10.6125 35.9355 8.04895 20.4543 17.0615C4.97615 26.074 3.64178 33.5292 5.31886 36.4583H5.31782Z" stroke="white" stroke-width="4" stroke-linecap="round" stroke-linejoin="round"/>
<path d="M5.31778 13.5417C3.64069 16.4708 4.7084 23.7719 20.4542 32.9385C36.2001 42.1052 43.0053 39.3875 44.6834 36.4583C46.3605 33.5292 45.0271 26.0729 29.5459 17.0615C14.0646 8.04895 6.99486 10.6125 5.31673 13.5417H5.31778Z" stroke="white" stroke-width="4" stroke-linecap="round" stroke-linejoin="round"/>
</svg>
