<svg width="81" height="81" viewBox="0 0 81 81" fill="none" xmlns="http://www.w3.org/2000/svg">
<path d="M35.4375 41.9934L28.8816 35.4375L25.3125 39.0066L35.4375 49.1316L55.6875 28.8816L52.1184 25.3125L35.4375 41.9934Z" fill="white"/>
<path d="M40.5 75.9375L24.867 67.6021C20.4103 65.2311 16.6834 61.6913 14.0862 57.3625C11.489 53.0337 10.1197 48.0794 10.125 43.0312V10.125C10.1264 8.78275 10.6602 7.49586 11.6093 6.54675C12.5584 5.59764 13.8453 5.06384 15.1875 5.0625H65.8125C67.1548 5.06384 68.4416 5.59764 69.3908 6.54675C70.3399 7.49586 70.8737 8.78275 70.875 10.125V43.0312C70.8804 48.0794 69.511 53.0337 66.9138 57.3625C64.3166 61.6913 60.5897 65.2311 56.133 67.6021L40.5 75.9375ZM15.1875 10.125V43.0312C15.1833 47.1618 16.3041 51.2154 18.4294 54.7571C20.5548 58.2989 23.6046 61.1949 27.2515 63.1344L40.5 70.1992L53.7486 63.137C57.3958 61.1973 60.4458 58.3008 62.5712 54.7586C64.6966 51.2164 65.8172 47.1622 65.8125 43.0312V10.125H15.1875Z" fill="white"/>
</svg>
